<?xml version="1.0" encoding="UTF-8" standalone="no"?>
<!-- Created with Inkscape (http://www.inkscape.org/) -->

<svg
   width="156.23653mm"
   height="96.730942mm"
   viewBox="0 0 156.23653 96.730942"
   version="1.1"
   id="svg1"
   xml:space="preserve"
   inkscape:version="1.3 (0e150ed6c4, 2023-07-21)"
   sodipodi:docname="Logo_Tecniservicios.svg"
   xmlns:inkscape="http://www.inkscape.org/namespaces/inkscape"
   xmlns:sodipodi="http://sodipodi.sourceforge.net/DTD/sodipodi-0.dtd"
   xmlns="http://www.w3.org/2000/svg"
   xmlns:svg="http://www.w3.org/2000/svg"><sodipodi:namedview
     id="namedview1"
     pagecolor="#ffffff"
     bordercolor="#000000"
     borderopacity="0"
     inkscape:showpageshadow="2"
     inkscape:pageopacity="0.0"
     inkscape:pagecheckerboard="0"
     inkscape:deskcolor="#d1d1d1"
     inkscape:document-units="mm"
     inkscape:zoom="0.74742565"
     inkscape:cx="278.28855"
     inkscape:cy="280.29544"
     inkscape:window-width="1920"
     inkscape:window-height="1017"
     inkscape:window-x="-8"
     inkscape:window-y="-8"
     inkscape:window-maximized="1"
     inkscape:current-layer="g1" /><defs
     id="defs1" /><g
     inkscape:label="Layer 1"
     inkscape:groupmode="layer"
     id="layer1"
     transform="translate(-31.374599,-74.252032)"><g
       id="g1"><path
         style="fill:#f8f8f8"
         d="m 141.72338,170.41635 c -0.37345,-0.37345 -0.679,-0.86301 -0.679,-1.0879 0,-0.5949 0.81904,-0.50165 0.97938,0.1115 0.0748,0.28622 0.36707,0.59371 0.64939,0.68332 1.28792,0.40877 1.81746,-1.53276 0.55404,-2.03141 -1.3557,-0.53508 -1.52122,-0.67978 -1.60733,-1.40521 -0.0954,-0.80417 0.58015,-1.73585 1.25874,-1.73585 0.67725,0 1.60536,0.77349 1.60536,1.33791 0,0.68875 -0.69425,0.65863 -0.87643,-0.038 -0.2057,-0.78662 -1.10794,-0.56317 -1.10794,0.2744 0,0.50089 0.18767,0.68965 0.85852,0.86348 1.07097,0.27752 1.74003,1.23245 1.50884,2.15355 -0.21307,0.84897 -0.60764,1.18182 -1.64743,1.38978 -0.65403,0.13081 -0.95269,0.0279 -1.49614,-0.51556 z m -67.987149,-0.0632 c -0.297362,-0.77491 -0.174602,-4.75331 0.156901,-5.08481 0.566833,-0.56684 2.029237,-0.37607 2.766139,0.36083 0.621283,0.62128 0.669768,0.82996 0.57647,2.48109 -0.05603,0.99151 -0.262204,1.99595 -0.458175,2.23208 -0.490296,0.59077 -2.815612,0.59904 -3.041335,0.0108 z m 2.166961,-0.33645 c 0.243261,-0.15431 0.320299,-0.78869 0.264583,-2.17876 -0.07697,-1.9204 -0.09369,-1.9628 -0.806205,-2.04478 l -0.727605,-0.0837 v 2.09014 c 0,2.44491 0.24246,2.86845 1.269227,2.21712 z m 6.312405,0.27111 c -0.321297,-0.35503 -0.437882,-0.98628 -0.437882,-2.37094 0,-1.60056 0.08792,-1.969 0.579057,-2.42656 0.690308,-0.64312 1.726647,-0.69524 2.537072,-0.1276 0.522979,0.36631 0.588038,0.64231 0.588038,2.49465 0,1.54064 -0.108221,2.19098 -0.415774,2.49853 -0.579382,0.57939 -2.301793,0.53825 -2.850511,-0.0681 z m 2.18878,-0.41908 c 0.185765,-0.22384 0.278365,-1.03537 0.230834,-2.02301 -0.08337,-1.7323 -0.501967,-2.35094 -1.366324,-2.01925 -0.346512,0.13296 -0.432838,0.55472 -0.432838,2.11467 0,1.07172 0.07937,2.02796 0.176389,2.12497 0.30219,0.30219 1.067382,0.19369 1.391939,-0.19738 z m 5.840005,-1.85957 c 0,-4.02426 0.676132,-4.14641 1.876469,-0.339 l 0.685843,2.17547 0.735815,-2.31964 c 0.783067,-2.4686 0.913239,-2.66851 1.572788,-2.41541 0.347529,0.13336 0.420752,0.64338 0.420752,2.93067 0,2.49446 -0.04594,2.7605 -0.463021,2.68129 -0.351978,-0.0668 -0.484531,-0.40462 -0.55271,-1.40846 l -0.08969,-1.32054 -0.44548,1.19063 c -0.354523,0.94752 -0.587455,1.2072 -1.140823,1.27181 -0.624431,0.0729 -0.745239,-0.062 -1.184622,-1.32292 l -0.48928,-1.4041 -0.07935,1.52135 c -0.05822,1.11618 -0.181532,1.52136 -0.463021,1.52136 -0.310675,0 -0.383671,-0.52559 -0.383671,-2.76251 z m 9.965968,2.58612 c -0.260981,-0.26099 -0.20635,-4.92288 0.0627,-5.34761 0.54247,-0.85646 0.81928,0.0766 0.81928,2.76149 0,2.1257 -0.0813,2.76251 -0.35278,2.76251 -0.19403,0 -0.43215,-0.0794 -0.52917,-0.17639 z m 5.8821,-0.25294 c -0.19597,-0.23613 -0.40215,-1.24057 -0.45818,-2.23208 -0.0933,-1.65113 -0.0448,-1.85981 0.57647,-2.48109 0.86091,-0.86091 1.60328,-0.85983 2.46668,0.004 0.52252,0.52252 0.60913,0.75443 0.37056,0.99219 -0.2383,0.23749 -0.4218,0.16409 -0.78223,-0.3129 -0.28233,-0.37363 -0.67393,-0.58439 -0.9779,-0.5263 -0.43833,0.0838 -0.5174,0.3699 -0.5837,2.11218 -0.0616,1.61929 0.003,2.04602 0.33073,2.17164 0.55332,0.21233 1.20117,-0.0664 1.20117,-0.51681 0,-0.39862 0.67565,-0.50913 0.89939,-0.14711 0.0753,0.12181 -0.0435,0.479 -0.26397,0.79375 -0.49744,0.7102 -2.23411,0.79954 -2.77902,0.14296 z m 7.75704,-2.41494 c 0.0441,-1.66973 0.18436,-2.84427 0.33968,-2.84427 0.15533,0 0.2956,1.17454 0.33968,2.84427 0.0644,2.43835 0.0159,2.84427 -0.33968,2.84427 -0.35558,0 -0.40406,-0.40592 -0.33968,-2.84427 z m 5.55625,0 c 0.094,-3.5613 0.55562,-3.76856 0.73656,-0.33073 l 0.13229,2.51354 0.92604,0.085 c 1.68105,0.15432 1.51949,0.57645 -0.22062,0.57645 h -1.64936 z m 7.79763,2.67339 c -0.27536,-0.27535 -0.20987,-4.93145 0.0757,-5.38316 0.5444,-0.86108 0.82108,0.17102 0.74467,2.77779 -0.0703,2.39741 -0.29971,3.12605 -0.82038,2.60537 z m 5.78622,-0.41716 c -0.26735,-0.3817 -0.41187,-1.17506 -0.41187,-2.26098 0,-1.42344 0.0968,-1.76981 0.64943,-2.32238 0.7457,-0.74571 1.62087,-0.82999 2.46669,-0.23756 0.52838,0.3701 0.58804,0.63758 0.58804,2.63653 0,1.92865 -0.0681,2.26109 -0.51177,2.49854 -0.91848,0.49155 -2.3277,0.33234 -2.78052,-0.31415 z m 2.18104,-0.25863 c 0.18452,-0.18451 0.3175,-1.06897 0.3175,-2.11162 0,-1.68195 -0.0404,-1.80427 -0.64642,-1.95637 -0.35553,-0.0892 -0.77225,-0.0845 -0.92604,0.0106 -0.30268,0.18707 -0.39416,3.90761 -0.10323,4.19853 0.28081,0.28081 1.01227,0.20482 1.35819,-0.14111 z m -91.190499,-9.2942 c -0.22493,-0.27103 -0.292701,-2.0386 -0.241419,-6.29661 l 0.07129,-5.91981 h 3.96875 3.96875 l 0.07935,1.52135 0.07935,1.52136 H 49.494178 47.08215 l 0.08372,0.7276 c 0.07935,0.68962 0.163803,0.73177 1.617873,0.80733 l 1.534153,0.0797 -0.07894,1.50776 -0.07894,1.50777 -1.521354,0.0793 c -1.416535,0.0739 -1.521354,0.12402 -1.521354,0.72761 0,0.59269 0.10772,0.65086 1.256771,0.67872 0.691224,0.0168 1.47803,0.007 1.748459,-0.0215 0.270428,-0.0286 0.776444,0.0195 1.124479,0.10687 0.569847,0.14302 0.632791,0.30129 0.632791,1.59115 0,1.14106 -0.09416,1.45726 -0.463021,1.55489 -0.254661,0.0674 -1.961726,0.14069 -3.793477,0.16287 -2.596173,0.0314 -3.399401,-0.0427 -3.64317,-0.33646 z m 11.980546,0.12553 c -0.279952,-0.0514 -0.717363,-0.27821 -0.972024,-0.50403 -0.411625,-0.36499 -0.463021,-0.99339 -0.463021,-5.66122 0,-6.78827 -0.348569,-6.34975 4.96797,-6.24988 l 3.895572,0.0732 v 1.4552 1.45521 l -2.690622,0.0752 -2.690621,0.0752 -0.0875,1.77691 c -0.04813,0.97731 -0.05121,2.34247 -0.0069,3.03369 l 0.08064,1.25677 h 2.345114 c 1.289812,0 2.533445,0.0723 2.763628,0.1606 0.525447,0.20163 0.601885,2.70576 0.08779,2.87585 -0.440426,0.14572 -6.581905,0.29639 -7.230059,0.17738 z m 44.378413,-0.12228 c -0.29868,-0.35988 -0.424019,-11.2051 -0.13811,-11.95016 0.12834,-0.33446 0.81458,-0.40181 4.09463,-0.40181 h 3.94044 v 1.5772 1.5772 l -2.31511,0.0764 c -2.27267,0.0751 -2.3151,0.0886 -2.3151,0.73791 0,0.61966 0.0961,0.66647 1.52135,0.7408 l 1.52136,0.0794 v 1.5743 1.5743 h -1.5875 c -1.51695,0 -1.5875,0.0294 -1.5875,0.66145 0,0.7176 -0.17083,0.67524 3.04271,0.75457 l 1.5875,0.0392 0.0814,1.43017 c 0.0526,0.92519 -0.0335,1.50121 -0.24414,1.63136 -0.59285,0.3664 -7.28772,0.27634 -7.60193,-0.10227 z m 45.80085,0.17071 c -1.25587,-0.26146 -1.39139,-0.8813 -1.39139,-6.36384 0,-6.61439 -0.338,-6.1994 4.96797,-6.09972 l 3.89557,0.0732 v 1.4552 1.45521 l -2.71198,0.0754 -2.71198,0.0754 v 3.03345 3.03345 l 2.18281,0.0305 c 1.20055,0.0168 2.30188,0.0582 2.4474,0.092 0.14552,0.0338 0.41341,0.0796 0.59531,0.10178 0.21961,0.0268 0.33073,0.52922 0.33073,1.4955 v 1.45521 h -2.74505 c -1.50978,0 -3.08736,0.0474 -3.50573,0.10536 -0.41837,0.058 -1.02752,0.0498 -1.35366,-0.0181 z m 20.52486,-0.0987 c -1.08245,-0.25376 -1.251,-1.08845 -1.259,-6.23482 -0.0101,-6.48878 -0.24418,-6.18917 4.83537,-6.18917 5.31631,0 4.93446,-0.48084 4.93446,6.21382 0,5.68365 -0.10004,6.17382 -1.27567,6.25061 -1.62871,0.10638 -6.73052,0.0779 -7.23516,-0.0404 z m 5.20354,-6.20628 v -2.91041 h -1.45521 -1.45521 l -0.0749,2.99003 -0.0749,2.99002 1.53014,-0.0796 1.53015,-0.0796 z m -137.32396,5.9447 c -0.0928,-0.15016 -0.148514,-1.43008 -0.123803,-2.84427 0.02471,-1.41419 0.03408,-3.36899 0.02083,-4.34399 l -0.0241,-1.77274 -1.521354,-0.0794 -1.521354,-0.0794 v -1.45521 -1.4552 h 4.7625 4.7625 l 0.07935,1.52135 0.07935,1.52136 h -1.600704 -1.600704 v 4.6302 4.63021 h -1.571885 c -0.864537,0 -1.647814,-0.12285 -1.740617,-0.27301 z m 31.684157,-5.8658 0.07105,-6.16431 1.169402,-0.0836 c 1.633364,-0.1167 2.208271,0.0808 2.71408,0.93256 0.241212,0.40617 0.835324,1.27428 1.320251,1.92912 l 0.881684,1.19063 0.132292,-1.98438 0.132291,-1.98437 h 1.5875 1.5875 v 6.08541 6.08542 l -1.653645,0.0788 -1.653646,0.0788 -0.0029,-1.53398 c -0.0027,-1.41348 -0.10887,-1.68584 -1.351957,-3.46726 -0.741982,-1.06331 -1.415502,-1.86684 -1.496711,-1.78563 -0.08121,0.0812 -0.157438,1.60603 -0.169397,3.38849 l -0.02174,3.24084 -1.658553,0.0789 -1.658554,0.0789 z m 12.226268,5.50932 c -0.372678,-1.48486 -3.62e-4,-2.25596 1.28139,-2.65386 0.421036,-0.1307 0.463904,-0.45428 0.396875,-2.99565 -0.07423,-2.81424 -0.08325,-2.85026 -0.736605,-2.94194 -0.814183,-0.11425 -1.049052,-0.45715 -1.054281,-1.53919 -0.008,-1.66439 0.01449,-1.67529 3.463839,-1.67529 h 3.146692 v 1.56993 c 0,1.51596 -0.02501,1.5728 -0.727604,1.65365 l -0.727604,0.0837 v 2.89848 c 0,2.87398 0.0056,2.8998 0.661458,3.05356 0.597436,0.14006 0.669139,0.30128 0.740808,1.66558 l 0.07935,1.5105 H 81.79596 c -3.131605,0 -3.185722,-0.0102 -3.341155,-0.62949 z m 9.461269,-0.89186 c 0.09048,-1.73481 -0.346718,-1.55218 3.869062,-1.61619 3.3702,-0.0512 3.250869,-0.5269 -0.47683,-1.90092 -1.524894,-0.56208 -2.923878,-1.22893 -3.108854,-1.4819 -0.210696,-0.28814 -0.33632,-1.31519 -0.33632,-2.74962 0,-3.19849 -0.05064,-3.16544 4.849479,-3.16544 h 3.881771 v 1.57825 1.57824 l -2.711979,0.0754 c -3.637388,0.10114 -3.655729,0.51975 -0.08012,1.82881 3.366136,1.23237 3.585854,1.49709 3.585854,4.32032 0,3.10162 0.08131,3.0544 -5.259558,3.0544 h -4.29185 z m 23.027046,-4.61746 0.071,-6.16431 3.80735,-0.0736 c 4.89224,-0.0946 4.79161,-0.16699 4.79161,3.44635 0,2.22861 0.0806,2.73175 0.52917,3.30196 0.44361,0.56396 0.52917,1.07336 0.52917,3.15059 v 2.47786 h -1.70659 -1.70659 l -0.0794,-1.52135 -0.0793,-1.52136 -1.37546,-0.0795 -1.37546,-0.0795 -0.0798,1.53471 -0.0797,1.53471 -1.65855,0.0789 -1.65855,0.0789 z m 5.44269,-1.60025 -0.08,-1.38906 -0.99219,-0.0821 -0.99218,-0.0821 v 1.47118 1.47118 h 1.07216 1.07216 z m 8.37671,4.66328 -1.44522,-3.07578 v -3.15513 -3.15513 l 1.52135,0.0794 1.52136,0.0794 0.13229,3.175 c 0.10961,2.63056 0.23529,3.36782 0.73298,4.29948 0.33038,0.61846 0.70107,1.12448 0.82376,1.12448 0.12269,0 0.53699,-0.6995 0.92067,-1.55444 0.61309,-1.36615 0.69759,-1.89658 0.69759,-4.37883 v -2.82439 l 1.52135,0.0794 1.52136,0.0794 0.0823,3.04271 0.0823,3.0427 -1.52868,3.10886 -1.52868,3.10885 h -1.80472 -1.80472 z m 10.77855,1.55443 c 0.0751,-1.44021 0.11816,-1.52582 0.80696,-1.60508 l 0.7276,-0.0837 v -3.00756 -3.00756 l -0.7276,-0.0837 c -0.69541,-0.08 -0.72761,-0.14811 -0.72761,-1.53893 v -1.4552 h 3.175 3.175 v 1.4552 c 0,1.39082 -0.0322,1.45892 -0.7276,1.53893 l -0.7276,0.0837 v 3.00756 3.00756 l 0.7276,0.0837 c 0.68879,0.0793 0.73184,0.16487 0.80695,1.60508 l 0.0794,1.52135 h -3.3337 -3.3337 z m 20.90184,0.008 c 0.0754,-1.44915 0.11787,-1.53401 0.8072,-1.61333 l 0.7276,-0.0837 v -3.00756 -3.00756 l -0.7276,-0.0837 c -0.69541,-0.08 -0.7276,-0.14811 -0.7276,-1.53893 v -1.4552 h 3.175 3.175 v 1.4552 c 0,1.38019 -0.0364,1.45942 -0.70651,1.5369 -0.67688,0.0783 -0.71015,0.15591 -0.79375,1.85208 -0.1515,3.07418 0.006,4.28394 0.55631,4.28394 0.75971,0 1.11551,0.65826 1.02626,1.89868 l -0.0823,1.14403 -3.2546,0.0744 -3.25459,0.0744 z m 21.55494,1.33671 c -0.097,-0.097 -0.17639,-0.73912 -0.17639,-1.4269 0,-0.89623 0.11857,-1.29601 0.41852,-1.41111 0.23018,-0.0883 1.65191,-0.1606 3.15938,-0.1606 3.97542,0 4.00832,-0.47748 0.12627,-1.83218 -3.35105,-1.1694 -3.54562,-1.37817 -3.66092,-3.92815 -0.0807,-1.78482 -0.0189,-2.13829 0.48597,-2.77941 l 0.57843,-0.73454 3.87795,0.0731 3.87795,0.0731 v 1.4552 1.45521 l -2.62471,0.1323 c -3.80277,0.19166 -3.67307,0.74997 0.49225,2.11896 2.73006,0.89727 3.0585,1.33173 3.0585,4.04571 0,3.1452 0.0831,3.09574 -5.20226,3.09574 -2.329,0 -4.31392,-0.0794 -4.41094,-0.17639 z M 91.831882,139.42042 c 0,-0.21934 0.148828,-0.40097 0.330729,-0.40363 0.181901,-0.003 1.303102,-0.40542 2.491558,-0.89501 2.632997,-1.08468 5.509001,-3.03764 7.620471,-5.17471 l 1.57922,-1.59836 H 88.998228 c -13.152342,0 -14.903303,-0.0477 -15.271406,-0.41577 -0.371376,-0.37138 -0.415773,-2.78887 -0.415773,-22.63927 0,-14.813245 0.09133,-22.394144 0.273892,-22.73527 0.266368,-0.497714 0.734744,-0.511773 17.05001,-0.511773 9.226865,0 16.835609,-0.09626 16.908329,-0.213914 0.0727,-0.117653 -0.78347,-0.829179 -1.90262,-1.581168 -4.07908,-2.740848 -7.616686,-4.080047 -10.864446,-4.11285 -2.583014,-0.02609 -4.416171,0.587907 -6.274583,2.101605 -0.783625,0.638271 -1.485986,1.160494 -1.560803,1.160494 -0.336525,0 -0.07482,-1.31099 0.514301,-2.576363 2.581179,-5.544099 8.611451,-7.078652 15.832191,-4.028895 3.44935,1.456871 6.53137,3.557809 10.53976,7.184703 l 2.28375,2.066388 h 14.00136 c 10.53717,0 14.07991,0.07855 14.31886,0.3175 0.46004,0.460045 0.46004,45.207043 0,45.667083 -0.23321,0.23321 -2.4821,0.3175 -8.47068,0.3175 h -8.15317 l -1.38506,0.77967 c -0.821,0.46215 -2.08542,0.88395 -3.10484,1.03574 -1.8762,0.27936 -4.00026,0.0784 -4.15666,-0.39321 -0.0543,-0.16368 0.41228,-0.52087 1.0368,-0.79375 l 1.13548,-0.49616 -3.27681,-0.0746 c -1.80225,-0.041 -3.35006,-2.8e-4 -3.43958,0.0905 -0.23112,0.23442 2.83051,3.05899 4.65345,4.29314 1.9778,1.339 2.96889,1.84864 5.23794,2.6935 1.01865,0.37928 1.85209,0.80433 1.85209,0.94455 0,0.16024 -6.41325,0.28023 -17.26407,0.32301 -15.236409,0.0601 -17.264058,0.0212 -17.264058,-0.33073 z m 47.528038,-12.29604 c 1.4624,-0.9388 1.41988,-0.37242 1.41988,-18.91453 0,-18.766559 0.0455,-18.217741 -1.57884,-19.057703 -0.65097,-0.336631 -2.29041,-0.401353 -10.16637,-0.401353 -5.16462,0 -9.44171,0.0893 -9.50464,0.198437 -0.0629,0.109141 1.00423,1.74625 2.37147,3.638021 8.06691,11.161738 11.68384,24.981188 8.94473,34.175698 -0.22938,0.76995 0.24541,0.85219 4.50969,0.78113 2.37546,-0.0396 3.61422,-0.16943 4.00408,-0.4197 z m -13.55426,-1.33192 c 0.71985,-2.07845 0.88072,-7.52726 0.31812,-10.77477 -1.45065,-8.37361 -6.65511,-18.605926 -12.67292,-24.915812 l -1.36099,-1.427041 -16.296714,0.134209 c -11.673273,0.09613 -16.460249,0.221729 -16.873133,0.442697 -1.393168,0.745601 -1.375641,0.502811 -1.375641,19.055877 v 17.20184 l 0.82243,0.9367 0.82243,0.9367 23.056218,-0.0676 23.05621,-0.0676 z"
         id="path8" /><path
         style="fill:#fdd258"
         d="m 78.365541,126.44471 -0.821159,-0.93525 v -17.20184 c 0,-18.42725 -0.0077,-18.315544 1.308261,-19.019816 0.279969,-0.149835 2.124205,-0.272427 4.098303,-0.272427 h 3.589269 v 19.182293 19.18229 H 82.863457 79.1867 Z"
         id="path7" /><path
         style="fill:#83b84c"
         d="M 95.536049,108.19767 V 89.015377 h 4.497921 4.49791 v 19.182293 19.18229 h -4.49791 -4.497921 z m -8.870396,0 c 2.4e-5,-10.477501 0.03284,-14.725226 0.07292,-9.43939 0.04008,5.28584 0.04006,13.85834 -4.5e-5,19.05 -0.0401,5.19166 -0.0729,0.86689 -0.07287,-9.61061 z"
         id="path4" /><path
         style="fill:#0fa2ae"
         d="M 86.804799,108.19767 V 89.015377 h 4.365625 4.365625 v 19.182293 19.18229 h -4.365625 -4.365625 z m 36.004821,8.00365 c 0.0239,-12.44949 -0.0645,-12.08818 1.66776,-6.81303 2.18174,6.64391 2.53562,12.22714 1.06069,16.7349 -0.40825,1.2477 -0.41965,1.25677 -1.58058,1.25677 h -1.16936 z m 8.22024,10.38489 c 0.15219,-0.43656 0.32459,-0.79375 0.38311,-0.79375 0.0585,0 0.10641,0.35719 0.10641,0.79375 0,0.51649 -0.13382,0.79375 -0.38311,0.79375 -0.31078,0 -0.33087,-0.14986 -0.10641,-0.79375 z m -0.26078,-15.80841 c -1.26645,-4.78069 -4.17647,-11.385777 -6.82307,-15.486819 -1.13506,-1.758832 -1.15788,-1.838343 -1.15788,-4.034896 v -2.240708 h 4.36563 4.36562 v 12.038543 c 0,6.6212 -0.0309,12.03854 -0.0686,12.03854 -0.0377,0 -0.3445,-1.0416 -0.68174,-2.31466 z"
         id="path3" /><path
         style="fill:#c73444"
         d="M 104.53188,108.19767 V 89.015377 h 3.85595 3.85594 l 1.36958,1.497912 c 2.76967,3.029203 5.95943,7.71068 7.9586,11.680511 l 0.9516,1.88962 v 11.64827 11.64827 h -8.99583 -8.99584 z m 16.49171,-17.197918 -1.36767,-1.852083 1.33078,-0.08099 c 0.73193,-0.04454 1.3829,-0.02886 1.44661,0.03485 0.0637,0.06371 0.0803,0.933593 0.0369,1.933071 l -0.0789,1.817233 z"
         id="path2" /><path
         style="fill:#242021"
         d="m 131.67246,125.06486 c 0.12712,-1.27331 0.20909,-3.68433 0.18214,-5.35782 -0.0269,-1.67349 -0.12193,-9.26372 -0.21107,-16.86718 l -0.16206,-13.824483 h 3.58666 3.58665 l 0.86407,0.772047 0.86407,0.772046 v 17.6382 17.6382 l -0.86407,0.77204 -0.86407,0.77205 h -3.60673 -3.60673 z"
         id="path1" /></g></g></svg>
